<mxfile host="app.diagrams.net" modified="2023-10-08T19:10:13.554Z" agent="Mozilla/5.0 (Macintosh; Intel Mac OS X 10_15_7) AppleWebKit/537.36 (KHTML, like Gecko) Chrome/117.0.0.0 Safari/537.36" etag="ZypZbQ35OvnB-UqKfdRL" version="22.0.4" type="device">
  <diagram id="C5RBs43oDa-KdzZeNtuy" name="Page-1">
    <mxGraphModel dx="2388" dy="4811" grid="1" gridSize="10" guides="1" tooltips="1" connect="1" arrows="1" fold="1" page="1" pageScale="1" pageWidth="827" pageHeight="1169" math="0" shadow="0">
      <root>
        <mxCell id="WIyWlLk6GJQsqaUBKTNV-0" />
        <mxCell id="WIyWlLk6GJQsqaUBKTNV-1" parent="WIyWlLk6GJQsqaUBKTNV-0" />
        <mxCell id="ufJ5ZLEXhiZKo--kOKLT-236" style="edgeStyle=orthogonalEdgeStyle;rounded=0;orthogonalLoop=1;jettySize=auto;html=1;entryX=0.5;entryY=0;entryDx=0;entryDy=0;" parent="WIyWlLk6GJQsqaUBKTNV-1" source="ufJ5ZLEXhiZKo--kOKLT-0" target="ufJ5ZLEXhiZKo--kOKLT-235" edge="1">
          <mxGeometry relative="1" as="geometry" />
        </mxCell>
        <mxCell id="ufJ5ZLEXhiZKo--kOKLT-0" value="Start" style="ellipse;whiteSpace=wrap;html=1;" parent="WIyWlLk6GJQsqaUBKTNV-1" vertex="1">
          <mxGeometry x="190" y="-2360" width="120" height="80" as="geometry" />
        </mxCell>
        <mxCell id="ufJ5ZLEXhiZKo--kOKLT-4" style="edgeStyle=orthogonalEdgeStyle;rounded=0;orthogonalLoop=1;jettySize=auto;html=1;" parent="WIyWlLk6GJQsqaUBKTNV-1" source="ufJ5ZLEXhiZKo--kOKLT-3" edge="1">
          <mxGeometry relative="1" as="geometry">
            <mxPoint x="450" y="-1740" as="targetPoint" />
          </mxGeometry>
        </mxCell>
        <mxCell id="ck2sGLqdk7FQOX9ZN5vF-2" style="edgeStyle=orthogonalEdgeStyle;rounded=0;orthogonalLoop=1;jettySize=auto;html=1;exitX=0.5;exitY=1;exitDx=0;exitDy=0;entryX=0.5;entryY=0;entryDx=0;entryDy=0;" parent="WIyWlLk6GJQsqaUBKTNV-1" source="ufJ5ZLEXhiZKo--kOKLT-3" edge="1">
          <mxGeometry relative="1" as="geometry">
            <mxPoint x="250" y="-1570" as="targetPoint" />
          </mxGeometry>
        </mxCell>
        <mxCell id="ufJ5ZLEXhiZKo--kOKLT-3" value="input is yes" style="rhombus;whiteSpace=wrap;html=1;" parent="WIyWlLk6GJQsqaUBKTNV-1" vertex="1">
          <mxGeometry x="190" y="-1800" width="120" height="120" as="geometry" />
        </mxCell>
        <mxCell id="ufJ5ZLEXhiZKo--kOKLT-11" style="edgeStyle=orthogonalEdgeStyle;rounded=0;orthogonalLoop=1;jettySize=auto;html=1;" parent="WIyWlLk6GJQsqaUBKTNV-1" source="ufJ5ZLEXhiZKo--kOKLT-12" edge="1">
          <mxGeometry relative="1" as="geometry">
            <mxPoint x="250" y="260" as="targetPoint" />
          </mxGeometry>
        </mxCell>
        <mxCell id="ck2sGLqdk7FQOX9ZN5vF-69" style="edgeStyle=orthogonalEdgeStyle;rounded=0;orthogonalLoop=1;jettySize=auto;html=1;exitX=1;exitY=0.5;exitDx=0;exitDy=0;entryX=0.5;entryY=1;entryDx=0;entryDy=0;" parent="WIyWlLk6GJQsqaUBKTNV-1" source="ufJ5ZLEXhiZKo--kOKLT-12" target="ck2sGLqdk7FQOX9ZN5vF-67" edge="1">
          <mxGeometry relative="1" as="geometry" />
        </mxCell>
        <mxCell id="ufJ5ZLEXhiZKo--kOKLT-12" value="input Craft &lt;br&gt;command&lt;br&gt;&quot;C&quot;" style="rhombus;whiteSpace=wrap;html=1;" parent="WIyWlLk6GJQsqaUBKTNV-1" vertex="1">
          <mxGeometry x="190" width="120" height="120" as="geometry" />
        </mxCell>
        <mxCell id="ufJ5ZLEXhiZKo--kOKLT-17" style="edgeStyle=orthogonalEdgeStyle;rounded=0;orthogonalLoop=1;jettySize=auto;html=1;entryX=0;entryY=0.5;entryDx=0;entryDy=0;" parent="WIyWlLk6GJQsqaUBKTNV-1" source="ufJ5ZLEXhiZKo--kOKLT-19" target="ufJ5ZLEXhiZKo--kOKLT-119" edge="1">
          <mxGeometry relative="1" as="geometry">
            <mxPoint x="450" y="320" as="targetPoint" />
            <Array as="points">
              <mxPoint x="390" y="320" />
              <mxPoint x="390" y="320" />
            </Array>
          </mxGeometry>
        </mxCell>
        <mxCell id="ufJ5ZLEXhiZKo--kOKLT-18" style="edgeStyle=orthogonalEdgeStyle;rounded=0;orthogonalLoop=1;jettySize=auto;html=1;" parent="WIyWlLk6GJQsqaUBKTNV-1" source="ufJ5ZLEXhiZKo--kOKLT-19" edge="1">
          <mxGeometry relative="1" as="geometry">
            <mxPoint x="250" y="520" as="targetPoint" />
          </mxGeometry>
        </mxCell>
        <mxCell id="ufJ5ZLEXhiZKo--kOKLT-19" value="input Mine&lt;br style=&quot;border-color: var(--border-color);&quot;&gt;command&lt;br style=&quot;border-color: var(--border-color);&quot;&gt;&quot;M&quot;" style="rhombus;whiteSpace=wrap;html=1;" parent="WIyWlLk6GJQsqaUBKTNV-1" vertex="1">
          <mxGeometry x="190" y="260" width="120" height="120" as="geometry" />
        </mxCell>
        <mxCell id="ufJ5ZLEXhiZKo--kOKLT-20" value="Mine block" style="rounded=0;whiteSpace=wrap;html=1;" parent="WIyWlLk6GJQsqaUBKTNV-1" vertex="1">
          <mxGeometry x="620" y="290" width="120" height="60" as="geometry" />
        </mxCell>
        <mxCell id="ufJ5ZLEXhiZKo--kOKLT-21" style="edgeStyle=orthogonalEdgeStyle;rounded=0;orthogonalLoop=1;jettySize=auto;html=1;entryX=0;entryY=0.5;entryDx=0;entryDy=0;exitX=1;exitY=0.5;exitDx=0;exitDy=0;" parent="WIyWlLk6GJQsqaUBKTNV-1" source="ufJ5ZLEXhiZKo--kOKLT-20" edge="1">
          <mxGeometry relative="1" as="geometry">
            <mxPoint x="830" y="320" as="targetPoint" />
            <mxPoint x="790" y="319.5" as="sourcePoint" />
          </mxGeometry>
        </mxCell>
        <mxCell id="ufJ5ZLEXhiZKo--kOKLT-22" style="edgeStyle=orthogonalEdgeStyle;rounded=0;orthogonalLoop=1;jettySize=auto;html=1;exitX=1;exitY=0.5;exitDx=0;exitDy=0;" parent="WIyWlLk6GJQsqaUBKTNV-1" source="ufJ5ZLEXhiZKo--kOKLT-130" edge="1">
          <mxGeometry relative="1" as="geometry">
            <mxPoint x="1450" y="320" as="targetPoint" />
            <mxPoint x="1340" y="320" as="sourcePoint" />
          </mxGeometry>
        </mxCell>
        <mxCell id="ufJ5ZLEXhiZKo--kOKLT-122" style="edgeStyle=orthogonalEdgeStyle;rounded=0;orthogonalLoop=1;jettySize=auto;html=1;entryX=0;entryY=0.5;entryDx=0;entryDy=0;exitX=1;exitY=0.5;exitDx=0;exitDy=0;" parent="WIyWlLk6GJQsqaUBKTNV-1" source="ufJ5ZLEXhiZKo--kOKLT-131" target="ufJ5ZLEXhiZKo--kOKLT-123" edge="1">
          <mxGeometry relative="1" as="geometry">
            <mxPoint x="1100" y="320" as="targetPoint" />
            <mxPoint x="950" y="320" as="sourcePoint" />
          </mxGeometry>
        </mxCell>
        <mxCell id="ufJ5ZLEXhiZKo--kOKLT-24" style="edgeStyle=orthogonalEdgeStyle;rounded=0;orthogonalLoop=1;jettySize=auto;html=1;" parent="WIyWlLk6GJQsqaUBKTNV-1" source="ufJ5ZLEXhiZKo--kOKLT-26" edge="1">
          <mxGeometry relative="1" as="geometry">
            <mxPoint x="450" y="580" as="targetPoint" />
          </mxGeometry>
        </mxCell>
        <mxCell id="ufJ5ZLEXhiZKo--kOKLT-25" style="edgeStyle=orthogonalEdgeStyle;rounded=0;orthogonalLoop=1;jettySize=auto;html=1;" parent="WIyWlLk6GJQsqaUBKTNV-1" source="ufJ5ZLEXhiZKo--kOKLT-26" edge="1">
          <mxGeometry relative="1" as="geometry">
            <mxPoint x="250" y="780" as="targetPoint" />
          </mxGeometry>
        </mxCell>
        <mxCell id="ufJ5ZLEXhiZKo--kOKLT-26" value="input Move&lt;br style=&quot;border-color: var(--border-color);&quot;&gt;command&lt;br style=&quot;border-color: var(--border-color);&quot;&gt;&quot;W,A,S,D, UP, DOWN, RIGHT, LEFT&quot;" style="rhombus;whiteSpace=wrap;html=1;" parent="WIyWlLk6GJQsqaUBKTNV-1" vertex="1">
          <mxGeometry x="190" y="520" width="120" height="120" as="geometry" />
        </mxCell>
        <mxCell id="ufJ5ZLEXhiZKo--kOKLT-27" value="Move Player in the specified direction" style="rounded=0;whiteSpace=wrap;html=1;" parent="WIyWlLk6GJQsqaUBKTNV-1" vertex="1">
          <mxGeometry x="450" y="550" width="120" height="60" as="geometry" />
        </mxCell>
        <mxCell id="ufJ5ZLEXhiZKo--kOKLT-28" style="edgeStyle=orthogonalEdgeStyle;rounded=0;orthogonalLoop=1;jettySize=auto;html=1;" parent="WIyWlLk6GJQsqaUBKTNV-1" edge="1">
          <mxGeometry relative="1" as="geometry">
            <mxPoint x="730" y="580" as="targetPoint" />
            <mxPoint x="570" y="579.5" as="sourcePoint" />
          </mxGeometry>
        </mxCell>
        <mxCell id="ufJ5ZLEXhiZKo--kOKLT-29" style="edgeStyle=orthogonalEdgeStyle;rounded=0;orthogonalLoop=1;jettySize=auto;html=1;" parent="WIyWlLk6GJQsqaUBKTNV-1" source="ufJ5ZLEXhiZKo--kOKLT-30" edge="1">
          <mxGeometry relative="1" as="geometry">
            <mxPoint x="1450" y="580" as="targetPoint" />
          </mxGeometry>
        </mxCell>
        <mxCell id="ufJ5ZLEXhiZKo--kOKLT-30" value="set Move Boolean &quot;True&quot;" style="rounded=0;whiteSpace=wrap;html=1;" parent="WIyWlLk6GJQsqaUBKTNV-1" vertex="1">
          <mxGeometry x="920" y="550" width="120" height="60" as="geometry" />
        </mxCell>
        <mxCell id="ufJ5ZLEXhiZKo--kOKLT-31" style="edgeStyle=orthogonalEdgeStyle;rounded=0;orthogonalLoop=1;jettySize=auto;html=1;" parent="WIyWlLk6GJQsqaUBKTNV-1" source="ufJ5ZLEXhiZKo--kOKLT-33" edge="1">
          <mxGeometry relative="1" as="geometry">
            <mxPoint x="450" y="840" as="targetPoint" />
          </mxGeometry>
        </mxCell>
        <mxCell id="ufJ5ZLEXhiZKo--kOKLT-32" style="edgeStyle=orthogonalEdgeStyle;rounded=0;orthogonalLoop=1;jettySize=auto;html=1;" parent="WIyWlLk6GJQsqaUBKTNV-1" source="ufJ5ZLEXhiZKo--kOKLT-33" edge="1">
          <mxGeometry relative="1" as="geometry">
            <mxPoint x="250" y="1040" as="targetPoint" />
          </mxGeometry>
        </mxCell>
        <mxCell id="ufJ5ZLEXhiZKo--kOKLT-33" value="input Unlock Command" style="rhombus;whiteSpace=wrap;html=1;" parent="WIyWlLk6GJQsqaUBKTNV-1" vertex="1">
          <mxGeometry x="190" y="780" width="120" height="120" as="geometry" />
        </mxCell>
        <mxCell id="ufJ5ZLEXhiZKo--kOKLT-34" value="set Unlock Boolean &quot;True&quot;" style="rounded=0;whiteSpace=wrap;html=1;" parent="WIyWlLk6GJQsqaUBKTNV-1" vertex="1">
          <mxGeometry x="450" y="810" width="120" height="60" as="geometry" />
        </mxCell>
        <mxCell id="ufJ5ZLEXhiZKo--kOKLT-35" style="edgeStyle=orthogonalEdgeStyle;rounded=0;orthogonalLoop=1;jettySize=auto;html=1;" parent="WIyWlLk6GJQsqaUBKTNV-1" edge="1">
          <mxGeometry relative="1" as="geometry">
            <mxPoint x="1450" y="840" as="targetPoint" />
            <mxPoint x="570" y="839.5" as="sourcePoint" />
          </mxGeometry>
        </mxCell>
        <mxCell id="ufJ5ZLEXhiZKo--kOKLT-38" value="Yes" style="text;html=1;strokeColor=none;fillColor=none;align=center;verticalAlign=middle;whiteSpace=wrap;rounded=0;" parent="WIyWlLk6GJQsqaUBKTNV-1" vertex="1">
          <mxGeometry x="300" y="30" width="60" height="30" as="geometry" />
        </mxCell>
        <mxCell id="ufJ5ZLEXhiZKo--kOKLT-39" value="No" style="text;html=1;strokeColor=none;fillColor=none;align=center;verticalAlign=middle;whiteSpace=wrap;rounded=0;" parent="WIyWlLk6GJQsqaUBKTNV-1" vertex="1">
          <mxGeometry x="440" y="190" width="60" height="30" as="geometry" />
        </mxCell>
        <mxCell id="ufJ5ZLEXhiZKo--kOKLT-41" style="edgeStyle=orthogonalEdgeStyle;rounded=0;orthogonalLoop=1;jettySize=auto;html=1;" parent="WIyWlLk6GJQsqaUBKTNV-1" source="ufJ5ZLEXhiZKo--kOKLT-42" edge="1">
          <mxGeometry relative="1" as="geometry">
            <mxPoint x="450" y="1100" as="targetPoint" />
          </mxGeometry>
        </mxCell>
        <mxCell id="ufJ5ZLEXhiZKo--kOKLT-42" value="input &quot;Open&quot;&lt;br style=&quot;border-color: var(--border-color);&quot;&gt;command&lt;br style=&quot;border-color: var(--border-color);&quot;&gt;" style="rhombus;whiteSpace=wrap;html=1;" parent="WIyWlLk6GJQsqaUBKTNV-1" vertex="1">
          <mxGeometry x="190" y="1040" width="120" height="120" as="geometry" />
        </mxCell>
        <mxCell id="ufJ5ZLEXhiZKo--kOKLT-44" style="edgeStyle=orthogonalEdgeStyle;rounded=0;orthogonalLoop=1;jettySize=auto;html=1;entryX=0;entryY=0.5;entryDx=0;entryDy=0;" parent="WIyWlLk6GJQsqaUBKTNV-1" target="ufJ5ZLEXhiZKo--kOKLT-50" edge="1">
          <mxGeometry relative="1" as="geometry">
            <mxPoint x="710" y="1099.5" as="targetPoint" />
            <mxPoint x="570" y="1099.5" as="sourcePoint" />
          </mxGeometry>
        </mxCell>
        <mxCell id="ufJ5ZLEXhiZKo--kOKLT-198" style="edgeStyle=orthogonalEdgeStyle;rounded=0;orthogonalLoop=1;jettySize=auto;html=1;exitX=0.5;exitY=1;exitDx=0;exitDy=0;entryX=0;entryY=0.5;entryDx=0;entryDy=0;" parent="WIyWlLk6GJQsqaUBKTNV-1" source="ufJ5ZLEXhiZKo--kOKLT-48" target="jaaq1zfjWtZs_Eytgcbc-0" edge="1">
          <mxGeometry relative="1" as="geometry">
            <mxPoint x="770" y="1220" as="targetPoint" />
            <Array as="points">
              <mxPoint x="510" y="1220" />
              <mxPoint x="720" y="1220" />
            </Array>
          </mxGeometry>
        </mxCell>
        <mxCell id="ufJ5ZLEXhiZKo--kOKLT-48" value="Craft, Mine, Move and Unlock Booleans are true" style="rhombus;whiteSpace=wrap;html=1;" parent="WIyWlLk6GJQsqaUBKTNV-1" vertex="1">
          <mxGeometry x="450" y="1040" width="120" height="120" as="geometry" />
        </mxCell>
        <mxCell id="ufJ5ZLEXhiZKo--kOKLT-233" style="edgeStyle=orthogonalEdgeStyle;rounded=0;orthogonalLoop=1;jettySize=auto;html=1;" parent="WIyWlLk6GJQsqaUBKTNV-1" source="ufJ5ZLEXhiZKo--kOKLT-50" target="ufJ5ZLEXhiZKo--kOKLT-232" edge="1">
          <mxGeometry relative="1" as="geometry" />
        </mxCell>
        <mxCell id="ufJ5ZLEXhiZKo--kOKLT-50" value="Open The Secret Door" style="rounded=0;whiteSpace=wrap;html=1;" parent="WIyWlLk6GJQsqaUBKTNV-1" vertex="1">
          <mxGeometry x="620" y="1070" width="120" height="60" as="geometry" />
        </mxCell>
        <mxCell id="ufJ5ZLEXhiZKo--kOKLT-51" value="Yes" style="text;html=1;strokeColor=none;fillColor=none;align=center;verticalAlign=middle;whiteSpace=wrap;rounded=0;" parent="WIyWlLk6GJQsqaUBKTNV-1" vertex="1">
          <mxGeometry x="340" y="810" width="60" height="30" as="geometry" />
        </mxCell>
        <mxCell id="ufJ5ZLEXhiZKo--kOKLT-52" value="Yes" style="text;html=1;strokeColor=none;fillColor=none;align=center;verticalAlign=middle;whiteSpace=wrap;rounded=0;" parent="WIyWlLk6GJQsqaUBKTNV-1" vertex="1">
          <mxGeometry x="340" y="550" width="60" height="30" as="geometry" />
        </mxCell>
        <mxCell id="ufJ5ZLEXhiZKo--kOKLT-53" value="Yes" style="text;html=1;strokeColor=none;fillColor=none;align=center;verticalAlign=middle;whiteSpace=wrap;rounded=0;" parent="WIyWlLk6GJQsqaUBKTNV-1" vertex="1">
          <mxGeometry x="320" y="290" width="60" height="30" as="geometry" />
        </mxCell>
        <mxCell id="ufJ5ZLEXhiZKo--kOKLT-56" value="No" style="text;html=1;strokeColor=none;fillColor=none;align=center;verticalAlign=middle;whiteSpace=wrap;rounded=0;" parent="WIyWlLk6GJQsqaUBKTNV-1" vertex="1">
          <mxGeometry x="240" y="970" width="60" height="30" as="geometry" />
        </mxCell>
        <mxCell id="ufJ5ZLEXhiZKo--kOKLT-57" value="No" style="text;html=1;strokeColor=none;fillColor=none;align=center;verticalAlign=middle;whiteSpace=wrap;rounded=0;" parent="WIyWlLk6GJQsqaUBKTNV-1" vertex="1">
          <mxGeometry x="240" y="700" width="60" height="30" as="geometry" />
        </mxCell>
        <mxCell id="ufJ5ZLEXhiZKo--kOKLT-58" value="No" style="text;html=1;strokeColor=none;fillColor=none;align=center;verticalAlign=middle;whiteSpace=wrap;rounded=0;" parent="WIyWlLk6GJQsqaUBKTNV-1" vertex="1">
          <mxGeometry x="240" y="440" width="60" height="30" as="geometry" />
        </mxCell>
        <mxCell id="ufJ5ZLEXhiZKo--kOKLT-78" style="edgeStyle=orthogonalEdgeStyle;rounded=0;orthogonalLoop=1;jettySize=auto;html=1;" parent="WIyWlLk6GJQsqaUBKTNV-1" source="ufJ5ZLEXhiZKo--kOKLT-80" edge="1">
          <mxGeometry relative="1" as="geometry">
            <mxPoint x="450" y="1360" as="targetPoint" />
          </mxGeometry>
        </mxCell>
        <mxCell id="ufJ5ZLEXhiZKo--kOKLT-79" style="edgeStyle=orthogonalEdgeStyle;rounded=0;orthogonalLoop=1;jettySize=auto;html=1;" parent="WIyWlLk6GJQsqaUBKTNV-1" source="ufJ5ZLEXhiZKo--kOKLT-80" edge="1">
          <mxGeometry relative="1" as="geometry">
            <mxPoint x="250" y="1560" as="targetPoint" />
          </mxGeometry>
        </mxCell>
        <mxCell id="ufJ5ZLEXhiZKo--kOKLT-80" value="input &quot;Look Around&quot;&lt;br style=&quot;border-color: var(--border-color);&quot;&gt;command" style="rhombus;whiteSpace=wrap;html=1;" parent="WIyWlLk6GJQsqaUBKTNV-1" vertex="1">
          <mxGeometry x="190" y="1300" width="120" height="120" as="geometry" />
        </mxCell>
        <mxCell id="ufJ5ZLEXhiZKo--kOKLT-82" style="edgeStyle=orthogonalEdgeStyle;rounded=0;orthogonalLoop=1;jettySize=auto;html=1;" parent="WIyWlLk6GJQsqaUBKTNV-1" edge="1">
          <mxGeometry relative="1" as="geometry">
            <mxPoint x="710" y="1359.5" as="targetPoint" />
            <mxPoint x="570" y="1359.5" as="sourcePoint" />
          </mxGeometry>
        </mxCell>
        <mxCell id="ufJ5ZLEXhiZKo--kOKLT-84" value="print &quot; You look around and see: &quot;" style="rounded=0;whiteSpace=wrap;html=1;" parent="WIyWlLk6GJQsqaUBKTNV-1" vertex="1">
          <mxGeometry x="450" y="1330" width="120" height="60" as="geometry" />
        </mxCell>
        <mxCell id="ufJ5ZLEXhiZKo--kOKLT-85" value="Yes" style="text;html=1;strokeColor=none;fillColor=none;align=center;verticalAlign=middle;whiteSpace=wrap;rounded=0;" parent="WIyWlLk6GJQsqaUBKTNV-1" vertex="1">
          <mxGeometry x="340" y="1330" width="60" height="30" as="geometry" />
        </mxCell>
        <mxCell id="ufJ5ZLEXhiZKo--kOKLT-86" value="No" style="text;html=1;strokeColor=none;fillColor=none;align=center;verticalAlign=middle;whiteSpace=wrap;rounded=0;" parent="WIyWlLk6GJQsqaUBKTNV-1" vertex="1">
          <mxGeometry x="240" y="1480" width="60" height="30" as="geometry" />
        </mxCell>
        <mxCell id="ufJ5ZLEXhiZKo--kOKLT-87" style="edgeStyle=orthogonalEdgeStyle;rounded=0;orthogonalLoop=1;jettySize=auto;html=1;" parent="WIyWlLk6GJQsqaUBKTNV-1" edge="1">
          <mxGeometry relative="1" as="geometry">
            <mxPoint x="250" y="1300" as="targetPoint" />
            <mxPoint x="250" y="1160" as="sourcePoint" />
          </mxGeometry>
        </mxCell>
        <mxCell id="ufJ5ZLEXhiZKo--kOKLT-92" style="edgeStyle=orthogonalEdgeStyle;rounded=0;orthogonalLoop=1;jettySize=auto;html=1;" parent="WIyWlLk6GJQsqaUBKTNV-1" source="ufJ5ZLEXhiZKo--kOKLT-94" edge="1">
          <mxGeometry relative="1" as="geometry">
            <mxPoint x="450" y="1620" as="targetPoint" />
          </mxGeometry>
        </mxCell>
        <mxCell id="ufJ5ZLEXhiZKo--kOKLT-93" style="edgeStyle=orthogonalEdgeStyle;rounded=0;orthogonalLoop=1;jettySize=auto;html=1;" parent="WIyWlLk6GJQsqaUBKTNV-1" source="ufJ5ZLEXhiZKo--kOKLT-94" edge="1">
          <mxGeometry relative="1" as="geometry">
            <mxPoint x="250" y="1820" as="targetPoint" />
          </mxGeometry>
        </mxCell>
        <mxCell id="ufJ5ZLEXhiZKo--kOKLT-94" value="input &quot;Place Block&quot;&lt;br style=&quot;border-color: var(--border-color);&quot;&gt;command" style="rhombus;whiteSpace=wrap;html=1;" parent="WIyWlLk6GJQsqaUBKTNV-1" vertex="1">
          <mxGeometry x="190" y="1560" width="120" height="120" as="geometry" />
        </mxCell>
        <mxCell id="ufJ5ZLEXhiZKo--kOKLT-95" style="edgeStyle=orthogonalEdgeStyle;rounded=0;orthogonalLoop=1;jettySize=auto;html=1;exitX=1;exitY=0.5;exitDx=0;exitDy=0;" parent="WIyWlLk6GJQsqaUBKTNV-1" source="ufJ5ZLEXhiZKo--kOKLT-107" edge="1">
          <mxGeometry relative="1" as="geometry">
            <mxPoint x="710" y="1619.5" as="targetPoint" />
            <mxPoint x="570" y="1619.5" as="sourcePoint" />
          </mxGeometry>
        </mxCell>
        <mxCell id="ufJ5ZLEXhiZKo--kOKLT-97" value="Yes" style="text;html=1;strokeColor=none;fillColor=none;align=center;verticalAlign=middle;whiteSpace=wrap;rounded=0;" parent="WIyWlLk6GJQsqaUBKTNV-1" vertex="1">
          <mxGeometry x="570" y="1850" width="60" height="30" as="geometry" />
        </mxCell>
        <mxCell id="ufJ5ZLEXhiZKo--kOKLT-98" value="No" style="text;html=1;strokeColor=none;fillColor=none;align=center;verticalAlign=middle;whiteSpace=wrap;rounded=0;" parent="WIyWlLk6GJQsqaUBKTNV-1" vertex="1">
          <mxGeometry x="240" y="1740" width="60" height="30" as="geometry" />
        </mxCell>
        <mxCell id="ufJ5ZLEXhiZKo--kOKLT-103" value="Player has the block" style="rhombus;whiteSpace=wrap;html=1;" parent="WIyWlLk6GJQsqaUBKTNV-1" vertex="1">
          <mxGeometry x="710" y="1560" width="120" height="120" as="geometry" />
        </mxCell>
        <mxCell id="ufJ5ZLEXhiZKo--kOKLT-104" value="Yes" style="text;html=1;strokeColor=none;fillColor=none;align=center;verticalAlign=middle;whiteSpace=wrap;rounded=0;" parent="WIyWlLk6GJQsqaUBKTNV-1" vertex="1">
          <mxGeometry x="860" y="1590" width="60" height="30" as="geometry" />
        </mxCell>
        <mxCell id="ufJ5ZLEXhiZKo--kOKLT-105" style="edgeStyle=orthogonalEdgeStyle;rounded=0;orthogonalLoop=1;jettySize=auto;html=1;" parent="WIyWlLk6GJQsqaUBKTNV-1" edge="1">
          <mxGeometry relative="1" as="geometry">
            <mxPoint x="970" y="1620" as="targetPoint" />
            <mxPoint x="830" y="1620" as="sourcePoint" />
          </mxGeometry>
        </mxCell>
        <mxCell id="ufJ5ZLEXhiZKo--kOKLT-117" style="edgeStyle=orthogonalEdgeStyle;rounded=0;orthogonalLoop=1;jettySize=auto;html=1;" parent="WIyWlLk6GJQsqaUBKTNV-1" source="ufJ5ZLEXhiZKo--kOKLT-106" edge="1">
          <mxGeometry relative="1" as="geometry">
            <mxPoint x="1450" y="1360" as="targetPoint" />
          </mxGeometry>
        </mxCell>
        <mxCell id="ufJ5ZLEXhiZKo--kOKLT-106" value="&lt;font style=&quot;&quot;&gt;&lt;font style=&quot;font-size: 10px;&quot;&gt;Print the player &quot;P&quot;&amp;nbsp; in a&lt;br style=&quot;border-color: var(--border-color);&quot;&gt;&lt;/font&gt;&lt;font style=&quot;font-size: 10px;&quot;&gt;3 X 3 matrix surrounded by eight block&lt;/font&gt;&lt;/font&gt;" style="shape=parallelogram;perimeter=parallelogramPerimeter;whiteSpace=wrap;html=1;fixedSize=1;" parent="WIyWlLk6GJQsqaUBKTNV-1" vertex="1">
          <mxGeometry x="700" y="1330" width="130" height="60" as="geometry" />
        </mxCell>
        <mxCell id="ufJ5ZLEXhiZKo--kOKLT-107" value="print &quot;Enter the block type to place: &quot;" style="shape=parallelogram;perimeter=parallelogramPerimeter;whiteSpace=wrap;html=1;fixedSize=1;" parent="WIyWlLk6GJQsqaUBKTNV-1" vertex="1">
          <mxGeometry x="440" y="1590" width="130" height="60" as="geometry" />
        </mxCell>
        <mxCell id="ufJ5ZLEXhiZKo--kOKLT-108" value="Place Block in the player&#39;s location" style="rounded=0;whiteSpace=wrap;html=1;" parent="WIyWlLk6GJQsqaUBKTNV-1" vertex="1">
          <mxGeometry x="971" y="1590" width="120" height="60" as="geometry" />
        </mxCell>
        <mxCell id="ufJ5ZLEXhiZKo--kOKLT-109" style="edgeStyle=orthogonalEdgeStyle;rounded=0;orthogonalLoop=1;jettySize=auto;html=1;" parent="WIyWlLk6GJQsqaUBKTNV-1" edge="1">
          <mxGeometry relative="1" as="geometry">
            <mxPoint x="1231" y="1619.4099999999999" as="targetPoint" />
            <mxPoint x="1091" y="1619.4099999999999" as="sourcePoint" />
          </mxGeometry>
        </mxCell>
        <mxCell id="ufJ5ZLEXhiZKo--kOKLT-116" style="edgeStyle=orthogonalEdgeStyle;rounded=0;orthogonalLoop=1;jettySize=auto;html=1;" parent="WIyWlLk6GJQsqaUBKTNV-1" source="ufJ5ZLEXhiZKo--kOKLT-110" edge="1">
          <mxGeometry relative="1" as="geometry">
            <mxPoint x="1450" y="1620" as="targetPoint" />
          </mxGeometry>
        </mxCell>
        <mxCell id="ufJ5ZLEXhiZKo--kOKLT-110" value="Print Placed" style="shape=parallelogram;perimeter=parallelogramPerimeter;whiteSpace=wrap;html=1;fixedSize=1;" parent="WIyWlLk6GJQsqaUBKTNV-1" vertex="1">
          <mxGeometry x="1220" y="1590" width="120" height="60" as="geometry" />
        </mxCell>
        <mxCell id="ufJ5ZLEXhiZKo--kOKLT-111" style="edgeStyle=orthogonalEdgeStyle;rounded=0;orthogonalLoop=1;jettySize=auto;html=1;" parent="WIyWlLk6GJQsqaUBKTNV-1" edge="1">
          <mxGeometry relative="1" as="geometry">
            <mxPoint x="890" y="1750" as="targetPoint" />
            <mxPoint x="770" y="1680" as="sourcePoint" />
            <Array as="points">
              <mxPoint x="770" y="1750" />
            </Array>
          </mxGeometry>
        </mxCell>
        <mxCell id="ufJ5ZLEXhiZKo--kOKLT-112" value="No" style="text;html=1;strokeColor=none;fillColor=none;align=center;verticalAlign=middle;whiteSpace=wrap;rounded=0;" parent="WIyWlLk6GJQsqaUBKTNV-1" vertex="1">
          <mxGeometry x="770" y="1710" width="60" height="30" as="geometry" />
        </mxCell>
        <mxCell id="ufJ5ZLEXhiZKo--kOKLT-115" style="edgeStyle=orthogonalEdgeStyle;rounded=0;orthogonalLoop=1;jettySize=auto;html=1;" parent="WIyWlLk6GJQsqaUBKTNV-1" source="ufJ5ZLEXhiZKo--kOKLT-114" edge="1">
          <mxGeometry relative="1" as="geometry">
            <mxPoint x="1450" y="-840" as="targetPoint" />
          </mxGeometry>
        </mxCell>
        <mxCell id="ufJ5ZLEXhiZKo--kOKLT-114" value="Print You dont have that block type in your inventory" style="shape=parallelogram;perimeter=parallelogramPerimeter;whiteSpace=wrap;html=1;fixedSize=1;" parent="WIyWlLk6GJQsqaUBKTNV-1" vertex="1">
          <mxGeometry x="880" y="1720" width="120" height="60" as="geometry" />
        </mxCell>
        <mxCell id="ufJ5ZLEXhiZKo--kOKLT-121" style="edgeStyle=orthogonalEdgeStyle;rounded=0;orthogonalLoop=1;jettySize=auto;html=1;entryX=0;entryY=0.5;entryDx=0;entryDy=0;" parent="WIyWlLk6GJQsqaUBKTNV-1" source="ufJ5ZLEXhiZKo--kOKLT-119" target="ufJ5ZLEXhiZKo--kOKLT-20" edge="1">
          <mxGeometry relative="1" as="geometry" />
        </mxCell>
        <mxCell id="ufJ5ZLEXhiZKo--kOKLT-127" style="edgeStyle=orthogonalEdgeStyle;rounded=0;orthogonalLoop=1;jettySize=auto;html=1;entryX=0;entryY=0.5;entryDx=0;entryDy=0;" parent="WIyWlLk6GJQsqaUBKTNV-1" source="ufJ5ZLEXhiZKo--kOKLT-119" target="ufJ5ZLEXhiZKo--kOKLT-129" edge="1">
          <mxGeometry relative="1" as="geometry">
            <mxPoint x="570" y="420" as="targetPoint" />
            <Array as="points">
              <mxPoint x="470" y="420" />
            </Array>
          </mxGeometry>
        </mxCell>
        <mxCell id="ufJ5ZLEXhiZKo--kOKLT-119" value="is there a block to mine?" style="rhombus;whiteSpace=wrap;html=1;" parent="WIyWlLk6GJQsqaUBKTNV-1" vertex="1">
          <mxGeometry x="410" y="260" width="120" height="120" as="geometry" />
        </mxCell>
        <mxCell id="ufJ5ZLEXhiZKo--kOKLT-120" value="Yes" style="text;html=1;strokeColor=none;fillColor=none;align=center;verticalAlign=middle;whiteSpace=wrap;rounded=0;" parent="WIyWlLk6GJQsqaUBKTNV-1" vertex="1">
          <mxGeometry x="540" y="290" width="60" height="30" as="geometry" />
        </mxCell>
        <mxCell id="ufJ5ZLEXhiZKo--kOKLT-124" style="edgeStyle=orthogonalEdgeStyle;rounded=0;orthogonalLoop=1;jettySize=auto;html=1;" parent="WIyWlLk6GJQsqaUBKTNV-1" source="ufJ5ZLEXhiZKo--kOKLT-123" edge="1">
          <mxGeometry relative="1" as="geometry">
            <mxPoint x="1150" y="320" as="targetPoint" />
          </mxGeometry>
        </mxCell>
        <mxCell id="ufJ5ZLEXhiZKo--kOKLT-123" value="add block to inventory" style="rounded=0;whiteSpace=wrap;html=1;" parent="WIyWlLk6GJQsqaUBKTNV-1" vertex="1">
          <mxGeometry x="960" y="290" width="120" height="60" as="geometry" />
        </mxCell>
        <mxCell id="ufJ5ZLEXhiZKo--kOKLT-128" value="No" style="text;html=1;strokeColor=none;fillColor=none;align=center;verticalAlign=middle;whiteSpace=wrap;rounded=0;" parent="WIyWlLk6GJQsqaUBKTNV-1" vertex="1">
          <mxGeometry x="470" y="390" width="60" height="30" as="geometry" />
        </mxCell>
        <mxCell id="ufJ5ZLEXhiZKo--kOKLT-132" style="edgeStyle=orthogonalEdgeStyle;rounded=0;orthogonalLoop=1;jettySize=auto;html=1;" parent="WIyWlLk6GJQsqaUBKTNV-1" source="ufJ5ZLEXhiZKo--kOKLT-129" edge="1">
          <mxGeometry relative="1" as="geometry">
            <mxPoint x="1120" y="320" as="targetPoint" />
          </mxGeometry>
        </mxCell>
        <mxCell id="ufJ5ZLEXhiZKo--kOKLT-129" value="Print No block to mine here" style="shape=parallelogram;perimeter=parallelogramPerimeter;whiteSpace=wrap;html=1;fixedSize=1;" parent="WIyWlLk6GJQsqaUBKTNV-1" vertex="1">
          <mxGeometry x="820" y="390" width="120" height="60" as="geometry" />
        </mxCell>
        <mxCell id="ufJ5ZLEXhiZKo--kOKLT-130" value="set Mine Boolean &quot;True&quot;" style="rounded=0;whiteSpace=wrap;html=1;" parent="WIyWlLk6GJQsqaUBKTNV-1" vertex="1">
          <mxGeometry x="1290" y="290" width="120" height="60" as="geometry" />
        </mxCell>
        <mxCell id="ufJ5ZLEXhiZKo--kOKLT-131" value="Print BlockType added to inventory" style="shape=parallelogram;perimeter=parallelogramPerimeter;whiteSpace=wrap;html=1;fixedSize=1;" parent="WIyWlLk6GJQsqaUBKTNV-1" vertex="1">
          <mxGeometry x="790" y="290" width="120" height="60" as="geometry" />
        </mxCell>
        <mxCell id="ufJ5ZLEXhiZKo--kOKLT-160" style="edgeStyle=orthogonalEdgeStyle;rounded=0;orthogonalLoop=1;jettySize=auto;html=1;exitX=0.5;exitY=1;exitDx=0;exitDy=0;entryX=0;entryY=0.5;entryDx=0;entryDy=0;" parent="WIyWlLk6GJQsqaUBKTNV-1" source="ufJ5ZLEXhiZKo--kOKLT-133" target="ufJ5ZLEXhiZKo--kOKLT-163" edge="1">
          <mxGeometry relative="1" as="geometry">
            <mxPoint x="1250" y="220" as="targetPoint" />
            <Array as="points">
              <mxPoint x="460" y="220" />
            </Array>
          </mxGeometry>
        </mxCell>
        <mxCell id="ufJ5ZLEXhiZKo--kOKLT-133" value="Craft wooden stick" style="rhombus;whiteSpace=wrap;html=1;" parent="WIyWlLk6GJQsqaUBKTNV-1" vertex="1">
          <mxGeometry x="420" y="100" width="80" height="80" as="geometry" />
        </mxCell>
        <mxCell id="ufJ5ZLEXhiZKo--kOKLT-159" style="edgeStyle=orthogonalEdgeStyle;rounded=0;orthogonalLoop=1;jettySize=auto;html=1;entryX=0.5;entryY=0;entryDx=0;entryDy=0;" parent="WIyWlLk6GJQsqaUBKTNV-1" source="ufJ5ZLEXhiZKo--kOKLT-134" target="ufJ5ZLEXhiZKo--kOKLT-133" edge="1">
          <mxGeometry relative="1" as="geometry" />
        </mxCell>
        <mxCell id="ufJ5ZLEXhiZKo--kOKLT-134" value="Craft wooden plank" style="rhombus;whiteSpace=wrap;html=1;" parent="WIyWlLk6GJQsqaUBKTNV-1" vertex="1">
          <mxGeometry x="420" y="-20" width="80" height="80" as="geometry" />
        </mxCell>
        <mxCell id="ufJ5ZLEXhiZKo--kOKLT-137" style="edgeStyle=orthogonalEdgeStyle;rounded=0;orthogonalLoop=1;jettySize=auto;html=1;" parent="WIyWlLk6GJQsqaUBKTNV-1" source="ufJ5ZLEXhiZKo--kOKLT-135" edge="1">
          <mxGeometry relative="1" as="geometry">
            <mxPoint x="569.9999999999998" y="-100" as="targetPoint" />
          </mxGeometry>
        </mxCell>
        <mxCell id="ufJ5ZLEXhiZKo--kOKLT-158" style="edgeStyle=orthogonalEdgeStyle;rounded=0;orthogonalLoop=1;jettySize=auto;html=1;entryX=0.5;entryY=0;entryDx=0;entryDy=0;" parent="WIyWlLk6GJQsqaUBKTNV-1" source="ufJ5ZLEXhiZKo--kOKLT-135" target="ufJ5ZLEXhiZKo--kOKLT-134" edge="1">
          <mxGeometry relative="1" as="geometry" />
        </mxCell>
        <mxCell id="ufJ5ZLEXhiZKo--kOKLT-135" value="Craft Iron ingot" style="rhombus;whiteSpace=wrap;html=1;" parent="WIyWlLk6GJQsqaUBKTNV-1" vertex="1">
          <mxGeometry x="420" y="-140" width="80" height="80" as="geometry" />
        </mxCell>
        <mxCell id="ufJ5ZLEXhiZKo--kOKLT-140" value="Yes" style="text;html=1;strokeColor=none;fillColor=none;align=center;verticalAlign=middle;whiteSpace=wrap;rounded=0;" parent="WIyWlLk6GJQsqaUBKTNV-1" vertex="1">
          <mxGeometry x="500" y="-120" width="60" height="30" as="geometry" />
        </mxCell>
        <mxCell id="ufJ5ZLEXhiZKo--kOKLT-142" value="enough material?" style="rhombus;whiteSpace=wrap;html=1;" parent="WIyWlLk6GJQsqaUBKTNV-1" vertex="1">
          <mxGeometry x="570" y="-140" width="80" height="80" as="geometry" />
        </mxCell>
        <mxCell id="ufJ5ZLEXhiZKo--kOKLT-146" style="edgeStyle=orthogonalEdgeStyle;rounded=0;orthogonalLoop=1;jettySize=auto;html=1;" parent="WIyWlLk6GJQsqaUBKTNV-1" edge="1">
          <mxGeometry relative="1" as="geometry">
            <mxPoint x="569.9999999999998" y="20" as="targetPoint" />
            <mxPoint x="490" y="20" as="sourcePoint" />
          </mxGeometry>
        </mxCell>
        <mxCell id="ufJ5ZLEXhiZKo--kOKLT-147" value="Yes" style="text;html=1;strokeColor=none;fillColor=none;align=center;verticalAlign=middle;whiteSpace=wrap;rounded=0;" parent="WIyWlLk6GJQsqaUBKTNV-1" vertex="1">
          <mxGeometry x="500" width="60" height="30" as="geometry" />
        </mxCell>
        <mxCell id="ufJ5ZLEXhiZKo--kOKLT-148" style="edgeStyle=orthogonalEdgeStyle;rounded=0;orthogonalLoop=1;jettySize=auto;html=1;" parent="WIyWlLk6GJQsqaUBKTNV-1" edge="1">
          <mxGeometry relative="1" as="geometry">
            <mxPoint x="569.9999999999998" y="140" as="targetPoint" />
            <mxPoint x="490" y="140" as="sourcePoint" />
          </mxGeometry>
        </mxCell>
        <mxCell id="ufJ5ZLEXhiZKo--kOKLT-149" value="Yes" style="text;html=1;strokeColor=none;fillColor=none;align=center;verticalAlign=middle;whiteSpace=wrap;rounded=0;" parent="WIyWlLk6GJQsqaUBKTNV-1" vertex="1">
          <mxGeometry x="500" y="120" width="60" height="30" as="geometry" />
        </mxCell>
        <mxCell id="ufJ5ZLEXhiZKo--kOKLT-150" style="edgeStyle=orthogonalEdgeStyle;rounded=0;orthogonalLoop=1;jettySize=auto;html=1;" parent="WIyWlLk6GJQsqaUBKTNV-1" edge="1">
          <mxGeometry relative="1" as="geometry">
            <mxPoint x="729.9999999999998" y="-100" as="targetPoint" />
            <mxPoint x="650" y="-100" as="sourcePoint" />
          </mxGeometry>
        </mxCell>
        <mxCell id="ufJ5ZLEXhiZKo--kOKLT-151" value="Yes" style="text;html=1;strokeColor=none;fillColor=none;align=center;verticalAlign=middle;whiteSpace=wrap;rounded=0;" parent="WIyWlLk6GJQsqaUBKTNV-1" vertex="1">
          <mxGeometry x="650" y="-120" width="60" height="30" as="geometry" />
        </mxCell>
        <mxCell id="ufJ5ZLEXhiZKo--kOKLT-152" style="edgeStyle=orthogonalEdgeStyle;rounded=0;orthogonalLoop=1;jettySize=auto;html=1;" parent="WIyWlLk6GJQsqaUBKTNV-1" edge="1">
          <mxGeometry relative="1" as="geometry">
            <mxPoint x="729.9999999999998" y="20" as="targetPoint" />
            <mxPoint x="650" y="20" as="sourcePoint" />
          </mxGeometry>
        </mxCell>
        <mxCell id="ufJ5ZLEXhiZKo--kOKLT-153" value="Yes" style="text;html=1;strokeColor=none;fillColor=none;align=center;verticalAlign=middle;whiteSpace=wrap;rounded=0;" parent="WIyWlLk6GJQsqaUBKTNV-1" vertex="1">
          <mxGeometry x="650" width="60" height="30" as="geometry" />
        </mxCell>
        <mxCell id="ufJ5ZLEXhiZKo--kOKLT-154" style="edgeStyle=orthogonalEdgeStyle;rounded=0;orthogonalLoop=1;jettySize=auto;html=1;" parent="WIyWlLk6GJQsqaUBKTNV-1" edge="1">
          <mxGeometry relative="1" as="geometry">
            <mxPoint x="729.9999999999998" y="140" as="targetPoint" />
            <mxPoint x="650" y="140" as="sourcePoint" />
          </mxGeometry>
        </mxCell>
        <mxCell id="ufJ5ZLEXhiZKo--kOKLT-155" value="Yes" style="text;html=1;strokeColor=none;fillColor=none;align=center;verticalAlign=middle;whiteSpace=wrap;rounded=0;" parent="WIyWlLk6GJQsqaUBKTNV-1" vertex="1">
          <mxGeometry x="650" y="120" width="60" height="30" as="geometry" />
        </mxCell>
        <mxCell id="ufJ5ZLEXhiZKo--kOKLT-156" value="enough material?" style="rhombus;whiteSpace=wrap;html=1;" parent="WIyWlLk6GJQsqaUBKTNV-1" vertex="1">
          <mxGeometry x="570" y="100" width="80" height="80" as="geometry" />
        </mxCell>
        <mxCell id="ufJ5ZLEXhiZKo--kOKLT-157" value="enough material?" style="rhombus;whiteSpace=wrap;html=1;" parent="WIyWlLk6GJQsqaUBKTNV-1" vertex="1">
          <mxGeometry x="570" y="-20" width="80" height="80" as="geometry" />
        </mxCell>
        <mxCell id="ufJ5ZLEXhiZKo--kOKLT-161" value="No" style="text;html=1;strokeColor=none;fillColor=none;align=center;verticalAlign=middle;whiteSpace=wrap;rounded=0;" parent="WIyWlLk6GJQsqaUBKTNV-1" vertex="1">
          <mxGeometry x="440" y="70" width="60" height="30" as="geometry" />
        </mxCell>
        <mxCell id="ufJ5ZLEXhiZKo--kOKLT-162" value="No" style="text;html=1;strokeColor=none;fillColor=none;align=center;verticalAlign=middle;whiteSpace=wrap;rounded=0;" parent="WIyWlLk6GJQsqaUBKTNV-1" vertex="1">
          <mxGeometry x="450" y="-50" width="60" height="30" as="geometry" />
        </mxCell>
        <mxCell id="ufJ5ZLEXhiZKo--kOKLT-164" style="edgeStyle=orthogonalEdgeStyle;rounded=0;orthogonalLoop=1;jettySize=auto;html=1;" parent="WIyWlLk6GJQsqaUBKTNV-1" source="ufJ5ZLEXhiZKo--kOKLT-163" edge="1">
          <mxGeometry relative="1" as="geometry">
            <mxPoint x="1230" y="20" as="targetPoint" />
          </mxGeometry>
        </mxCell>
        <mxCell id="ufJ5ZLEXhiZKo--kOKLT-163" value="Print Invalid recipe number" style="shape=parallelogram;perimeter=parallelogramPerimeter;whiteSpace=wrap;html=1;fixedSize=1;" parent="WIyWlLk6GJQsqaUBKTNV-1" vertex="1">
          <mxGeometry x="1170" y="190" width="120" height="60" as="geometry" />
        </mxCell>
        <mxCell id="ufJ5ZLEXhiZKo--kOKLT-176" style="edgeStyle=orthogonalEdgeStyle;rounded=0;orthogonalLoop=1;jettySize=auto;html=1;entryX=0;entryY=0.5;entryDx=0;entryDy=0;" parent="WIyWlLk6GJQsqaUBKTNV-1" source="ufJ5ZLEXhiZKo--kOKLT-171" target="ufJ5ZLEXhiZKo--kOKLT-175" edge="1">
          <mxGeometry relative="1" as="geometry" />
        </mxCell>
        <mxCell id="ufJ5ZLEXhiZKo--kOKLT-171" value="remove 3 iron ores from inventory" style="rounded=0;whiteSpace=wrap;html=1;" parent="WIyWlLk6GJQsqaUBKTNV-1" vertex="1">
          <mxGeometry x="730" y="-130" width="110" height="60" as="geometry" />
        </mxCell>
        <mxCell id="ufJ5ZLEXhiZKo--kOKLT-180" style="edgeStyle=orthogonalEdgeStyle;rounded=0;orthogonalLoop=1;jettySize=auto;html=1;" parent="WIyWlLk6GJQsqaUBKTNV-1" source="ufJ5ZLEXhiZKo--kOKLT-174" edge="1">
          <mxGeometry relative="1" as="geometry">
            <mxPoint x="1210" y="20" as="targetPoint" />
          </mxGeometry>
        </mxCell>
        <mxCell id="ufJ5ZLEXhiZKo--kOKLT-174" value="Print &quot;Crafted &lt;br&gt;iron ingot&quot;" style="shape=parallelogram;perimeter=parallelogramPerimeter;whiteSpace=wrap;html=1;fixedSize=1;" parent="WIyWlLk6GJQsqaUBKTNV-1" vertex="1">
          <mxGeometry x="1040" y="-130" width="130" height="60" as="geometry" />
        </mxCell>
        <mxCell id="ufJ5ZLEXhiZKo--kOKLT-179" style="edgeStyle=orthogonalEdgeStyle;rounded=0;orthogonalLoop=1;jettySize=auto;html=1;entryX=0;entryY=0.5;entryDx=0;entryDy=0;" parent="WIyWlLk6GJQsqaUBKTNV-1" source="ufJ5ZLEXhiZKo--kOKLT-175" target="ufJ5ZLEXhiZKo--kOKLT-174" edge="1">
          <mxGeometry relative="1" as="geometry" />
        </mxCell>
        <mxCell id="ufJ5ZLEXhiZKo--kOKLT-175" value="add 1 iron ingot to crafted items" style="rounded=0;whiteSpace=wrap;html=1;" parent="WIyWlLk6GJQsqaUBKTNV-1" vertex="1">
          <mxGeometry x="890" y="-130" width="110" height="60" as="geometry" />
        </mxCell>
        <mxCell id="ufJ5ZLEXhiZKo--kOKLT-181" style="edgeStyle=orthogonalEdgeStyle;rounded=0;orthogonalLoop=1;jettySize=auto;html=1;entryX=0;entryY=0.5;entryDx=0;entryDy=0;" parent="WIyWlLk6GJQsqaUBKTNV-1" source="ufJ5ZLEXhiZKo--kOKLT-182" target="ufJ5ZLEXhiZKo--kOKLT-185" edge="1">
          <mxGeometry relative="1" as="geometry" />
        </mxCell>
        <mxCell id="ufJ5ZLEXhiZKo--kOKLT-182" value="remove 2 wood from inventory" style="rounded=0;whiteSpace=wrap;html=1;" parent="WIyWlLk6GJQsqaUBKTNV-1" vertex="1">
          <mxGeometry x="730" y="-10" width="110" height="60" as="geometry" />
        </mxCell>
        <mxCell id="ufJ5ZLEXhiZKo--kOKLT-186" style="edgeStyle=orthogonalEdgeStyle;rounded=0;orthogonalLoop=1;jettySize=auto;html=1;" parent="WIyWlLk6GJQsqaUBKTNV-1" source="ufJ5ZLEXhiZKo--kOKLT-183" edge="1">
          <mxGeometry relative="1" as="geometry">
            <mxPoint x="1290" y="20" as="targetPoint" />
          </mxGeometry>
        </mxCell>
        <mxCell id="ufJ5ZLEXhiZKo--kOKLT-183" value="Print &quot;Crafted&lt;br&gt;wooden plank&quot;" style="shape=parallelogram;perimeter=parallelogramPerimeter;whiteSpace=wrap;html=1;fixedSize=1;" parent="WIyWlLk6GJQsqaUBKTNV-1" vertex="1">
          <mxGeometry x="1040" y="-10" width="130" height="60" as="geometry" />
        </mxCell>
        <mxCell id="ufJ5ZLEXhiZKo--kOKLT-184" style="edgeStyle=orthogonalEdgeStyle;rounded=0;orthogonalLoop=1;jettySize=auto;html=1;entryX=0;entryY=0.5;entryDx=0;entryDy=0;" parent="WIyWlLk6GJQsqaUBKTNV-1" source="ufJ5ZLEXhiZKo--kOKLT-185" target="ufJ5ZLEXhiZKo--kOKLT-183" edge="1">
          <mxGeometry relative="1" as="geometry" />
        </mxCell>
        <mxCell id="ufJ5ZLEXhiZKo--kOKLT-185" value="add 1 wooden plank to crafted items" style="rounded=0;whiteSpace=wrap;html=1;" parent="WIyWlLk6GJQsqaUBKTNV-1" vertex="1">
          <mxGeometry x="890" y="-10" width="110" height="60" as="geometry" />
        </mxCell>
        <mxCell id="ufJ5ZLEXhiZKo--kOKLT-192" style="edgeStyle=orthogonalEdgeStyle;rounded=0;orthogonalLoop=1;jettySize=auto;html=1;entryX=0;entryY=0.5;entryDx=0;entryDy=0;" parent="WIyWlLk6GJQsqaUBKTNV-1" source="ufJ5ZLEXhiZKo--kOKLT-193" target="ufJ5ZLEXhiZKo--kOKLT-196" edge="1">
          <mxGeometry relative="1" as="geometry" />
        </mxCell>
        <mxCell id="ufJ5ZLEXhiZKo--kOKLT-193" value="remove 1 wood from inventory" style="rounded=0;whiteSpace=wrap;html=1;" parent="WIyWlLk6GJQsqaUBKTNV-1" vertex="1">
          <mxGeometry x="730" y="110" width="110" height="60" as="geometry" />
        </mxCell>
        <mxCell id="ufJ5ZLEXhiZKo--kOKLT-197" style="edgeStyle=orthogonalEdgeStyle;rounded=0;orthogonalLoop=1;jettySize=auto;html=1;" parent="WIyWlLk6GJQsqaUBKTNV-1" source="ufJ5ZLEXhiZKo--kOKLT-194" edge="1">
          <mxGeometry relative="1" as="geometry">
            <mxPoint x="1210" y="20" as="targetPoint" />
          </mxGeometry>
        </mxCell>
        <mxCell id="ufJ5ZLEXhiZKo--kOKLT-194" value="Print &quot;Crafted&lt;br&gt;wooden stick&quot;" style="shape=parallelogram;perimeter=parallelogramPerimeter;whiteSpace=wrap;html=1;fixedSize=1;" parent="WIyWlLk6GJQsqaUBKTNV-1" vertex="1">
          <mxGeometry x="1040" y="110" width="130" height="60" as="geometry" />
        </mxCell>
        <mxCell id="ufJ5ZLEXhiZKo--kOKLT-195" style="edgeStyle=orthogonalEdgeStyle;rounded=0;orthogonalLoop=1;jettySize=auto;html=1;entryX=0;entryY=0.5;entryDx=0;entryDy=0;" parent="WIyWlLk6GJQsqaUBKTNV-1" source="ufJ5ZLEXhiZKo--kOKLT-196" target="ufJ5ZLEXhiZKo--kOKLT-194" edge="1">
          <mxGeometry relative="1" as="geometry" />
        </mxCell>
        <mxCell id="ufJ5ZLEXhiZKo--kOKLT-196" value="add 1 wooden stick to crafted items" style="rounded=0;whiteSpace=wrap;html=1;" parent="WIyWlLk6GJQsqaUBKTNV-1" vertex="1">
          <mxGeometry x="890" y="110" width="110" height="60" as="geometry" />
        </mxCell>
        <mxCell id="ufJ5ZLEXhiZKo--kOKLT-199" value="Yes" style="text;html=1;strokeColor=none;fillColor=none;align=center;verticalAlign=middle;whiteSpace=wrap;rounded=0;" parent="WIyWlLk6GJQsqaUBKTNV-1" vertex="1">
          <mxGeometry x="560" y="1070" width="60" height="30" as="geometry" />
        </mxCell>
        <mxCell id="ufJ5ZLEXhiZKo--kOKLT-200" value="No" style="text;html=1;strokeColor=none;fillColor=none;align=center;verticalAlign=middle;whiteSpace=wrap;rounded=0;" parent="WIyWlLk6GJQsqaUBKTNV-1" vertex="1">
          <mxGeometry x="600" y="1190" width="60" height="30" as="geometry" />
        </mxCell>
        <mxCell id="ufJ5ZLEXhiZKo--kOKLT-205" style="edgeStyle=orthogonalEdgeStyle;rounded=0;orthogonalLoop=1;jettySize=auto;html=1;" parent="WIyWlLk6GJQsqaUBKTNV-1" source="ufJ5ZLEXhiZKo--kOKLT-203" edge="1">
          <mxGeometry relative="1" as="geometry">
            <mxPoint x="1450" y="1215" as="targetPoint" />
          </mxGeometry>
        </mxCell>
        <mxCell id="ufJ5ZLEXhiZKo--kOKLT-203" value="&lt;font style=&quot;font-size: 11px;&quot;&gt;Print &quot;Invalid passkey.&lt;br&gt;&amp;nbsp;Try again!&quot;&lt;/font&gt;" style="shape=parallelogram;perimeter=parallelogramPerimeter;whiteSpace=wrap;html=1;fixedSize=1;" parent="WIyWlLk6GJQsqaUBKTNV-1" vertex="1">
          <mxGeometry x="980" y="1180" width="130" height="70" as="geometry" />
        </mxCell>
        <mxCell id="ufJ5ZLEXhiZKo--kOKLT-211" style="edgeStyle=orthogonalEdgeStyle;rounded=0;orthogonalLoop=1;jettySize=auto;html=1;entryX=0;entryY=0.5;entryDx=0;entryDy=0;" parent="WIyWlLk6GJQsqaUBKTNV-1" source="ufJ5ZLEXhiZKo--kOKLT-207" target="ufJ5ZLEXhiZKo--kOKLT-209" edge="1">
          <mxGeometry relative="1" as="geometry" />
        </mxCell>
        <mxCell id="ufJ5ZLEXhiZKo--kOKLT-207" value="&lt;font style=&quot;font-size: 11px;&quot;&gt;Print &quot;You have entered the secret area!&lt;br style=&quot;border-color: var(--border-color); padding: 0px; margin: 0px; font-size: 12px; text-align: left;&quot;&gt;&lt;span style=&quot;font-size: 12px; text-align: left;&quot;&gt;You are now presented with a game board with a flag!&lt;/span&gt;&quot;&lt;/font&gt;" style="shape=parallelogram;perimeter=parallelogramPerimeter;whiteSpace=wrap;html=1;fixedSize=1;" parent="WIyWlLk6GJQsqaUBKTNV-1" vertex="1">
          <mxGeometry x="966" y="1065" width="130" height="70" as="geometry" />
        </mxCell>
        <mxCell id="ufJ5ZLEXhiZKo--kOKLT-212" style="edgeStyle=orthogonalEdgeStyle;rounded=0;orthogonalLoop=1;jettySize=auto;html=1;entryX=0;entryY=0.5;entryDx=0;entryDy=0;" parent="WIyWlLk6GJQsqaUBKTNV-1" source="ufJ5ZLEXhiZKo--kOKLT-209" target="ufJ5ZLEXhiZKo--kOKLT-210" edge="1">
          <mxGeometry relative="1" as="geometry" />
        </mxCell>
        <mxCell id="ufJ5ZLEXhiZKo--kOKLT-209" value="fill inventory" style="rounded=0;whiteSpace=wrap;html=1;" parent="WIyWlLk6GJQsqaUBKTNV-1" vertex="1">
          <mxGeometry x="1130" y="1070" width="120" height="60" as="geometry" />
        </mxCell>
        <mxCell id="ufJ5ZLEXhiZKo--kOKLT-213" style="edgeStyle=orthogonalEdgeStyle;rounded=0;orthogonalLoop=1;jettySize=auto;html=1;" parent="WIyWlLk6GJQsqaUBKTNV-1" source="ufJ5ZLEXhiZKo--kOKLT-210" edge="1">
          <mxGeometry relative="1" as="geometry">
            <mxPoint x="1450" y="1100" as="targetPoint" />
          </mxGeometry>
        </mxCell>
        <mxCell id="ufJ5ZLEXhiZKo--kOKLT-210" value="&lt;font style=&quot;font-size: 11px;&quot;&gt;Display the Ducth flag&lt;/font&gt;" style="shape=parallelogram;perimeter=parallelogramPerimeter;whiteSpace=wrap;html=1;fixedSize=1;" parent="WIyWlLk6GJQsqaUBKTNV-1" vertex="1">
          <mxGeometry x="1270" y="1065" width="130" height="70" as="geometry" />
        </mxCell>
        <mxCell id="ufJ5ZLEXhiZKo--kOKLT-215" style="edgeStyle=orthogonalEdgeStyle;rounded=0;orthogonalLoop=1;jettySize=auto;html=1;entryX=0;entryY=0.5;entryDx=0;entryDy=0;" parent="WIyWlLk6GJQsqaUBKTNV-1" source="ufJ5ZLEXhiZKo--kOKLT-214" target="ufJ5ZLEXhiZKo--kOKLT-130" edge="1">
          <mxGeometry relative="1" as="geometry" />
        </mxCell>
        <mxCell id="ufJ5ZLEXhiZKo--kOKLT-216" style="edgeStyle=orthogonalEdgeStyle;rounded=0;orthogonalLoop=1;jettySize=auto;html=1;" parent="WIyWlLk6GJQsqaUBKTNV-1" source="ufJ5ZLEXhiZKo--kOKLT-214" edge="1">
          <mxGeometry relative="1" as="geometry">
            <mxPoint x="1450" y="420" as="targetPoint" />
            <Array as="points">
              <mxPoint x="1190" y="420" />
            </Array>
          </mxGeometry>
        </mxCell>
        <mxCell id="ufJ5ZLEXhiZKo--kOKLT-214" value="unlock Boolean is &quot;true&quot;" style="rhombus;whiteSpace=wrap;html=1;" parent="WIyWlLk6GJQsqaUBKTNV-1" vertex="1">
          <mxGeometry x="1150" y="280" width="80" height="80" as="geometry" />
        </mxCell>
        <mxCell id="ufJ5ZLEXhiZKo--kOKLT-217" value="Yes" style="text;html=1;strokeColor=none;fillColor=none;align=center;verticalAlign=middle;whiteSpace=wrap;rounded=0;" parent="WIyWlLk6GJQsqaUBKTNV-1" vertex="1">
          <mxGeometry x="1220" y="300" width="60" height="30" as="geometry" />
        </mxCell>
        <mxCell id="ufJ5ZLEXhiZKo--kOKLT-218" value="No" style="text;html=1;strokeColor=none;fillColor=none;align=center;verticalAlign=middle;whiteSpace=wrap;rounded=0;" parent="WIyWlLk6GJQsqaUBKTNV-1" vertex="1">
          <mxGeometry x="1220" y="390" width="60" height="30" as="geometry" />
        </mxCell>
        <mxCell id="ufJ5ZLEXhiZKo--kOKLT-225" style="edgeStyle=orthogonalEdgeStyle;rounded=0;orthogonalLoop=1;jettySize=auto;html=1;" parent="WIyWlLk6GJQsqaUBKTNV-1" source="ufJ5ZLEXhiZKo--kOKLT-219" edge="1">
          <mxGeometry relative="1" as="geometry">
            <mxPoint x="1450" y="115" as="targetPoint" />
          </mxGeometry>
        </mxCell>
        <mxCell id="ufJ5ZLEXhiZKo--kOKLT-219" value="set Craft Boolean &quot;True&quot;" style="rounded=0;whiteSpace=wrap;html=1;" parent="WIyWlLk6GJQsqaUBKTNV-1" vertex="1">
          <mxGeometry x="1270" y="85" width="120" height="60" as="geometry" />
        </mxCell>
        <mxCell id="ufJ5ZLEXhiZKo--kOKLT-221" style="edgeStyle=orthogonalEdgeStyle;rounded=0;orthogonalLoop=1;jettySize=auto;html=1;entryX=0.5;entryY=0;entryDx=0;entryDy=0;" parent="WIyWlLk6GJQsqaUBKTNV-1" source="ufJ5ZLEXhiZKo--kOKLT-220" target="ufJ5ZLEXhiZKo--kOKLT-219" edge="1">
          <mxGeometry relative="1" as="geometry" />
        </mxCell>
        <mxCell id="ufJ5ZLEXhiZKo--kOKLT-222" style="edgeStyle=orthogonalEdgeStyle;rounded=0;orthogonalLoop=1;jettySize=auto;html=1;" parent="WIyWlLk6GJQsqaUBKTNV-1" source="ufJ5ZLEXhiZKo--kOKLT-220" edge="1">
          <mxGeometry relative="1" as="geometry">
            <mxPoint x="1450" y="20" as="targetPoint" />
          </mxGeometry>
        </mxCell>
        <mxCell id="ufJ5ZLEXhiZKo--kOKLT-220" value="unlock Boolean is &quot;true&quot;" style="rhombus;whiteSpace=wrap;html=1;" parent="WIyWlLk6GJQsqaUBKTNV-1" vertex="1">
          <mxGeometry x="1290" y="-20" width="80" height="80" as="geometry" />
        </mxCell>
        <mxCell id="ufJ5ZLEXhiZKo--kOKLT-223" value="Yes" style="text;html=1;strokeColor=none;fillColor=none;align=center;verticalAlign=middle;whiteSpace=wrap;rounded=0;" parent="WIyWlLk6GJQsqaUBKTNV-1" vertex="1">
          <mxGeometry x="1280" y="55" width="60" height="30" as="geometry" />
        </mxCell>
        <mxCell id="ufJ5ZLEXhiZKo--kOKLT-224" value="No" style="text;html=1;strokeColor=none;fillColor=none;align=center;verticalAlign=middle;whiteSpace=wrap;rounded=0;" parent="WIyWlLk6GJQsqaUBKTNV-1" vertex="1">
          <mxGeometry x="1375" y="-10" width="60" height="30" as="geometry" />
        </mxCell>
        <mxCell id="ufJ5ZLEXhiZKo--kOKLT-227" style="edgeStyle=orthogonalEdgeStyle;rounded=0;orthogonalLoop=1;jettySize=auto;html=1;entryX=0;entryY=0.5;entryDx=0;entryDy=0;" parent="WIyWlLk6GJQsqaUBKTNV-1" source="ufJ5ZLEXhiZKo--kOKLT-226" target="ufJ5ZLEXhiZKo--kOKLT-30" edge="1">
          <mxGeometry relative="1" as="geometry" />
        </mxCell>
        <mxCell id="ufJ5ZLEXhiZKo--kOKLT-231" style="edgeStyle=orthogonalEdgeStyle;rounded=0;orthogonalLoop=1;jettySize=auto;html=1;" parent="WIyWlLk6GJQsqaUBKTNV-1" source="ufJ5ZLEXhiZKo--kOKLT-226" edge="1">
          <mxGeometry relative="1" as="geometry">
            <mxPoint x="1170" y="580" as="targetPoint" />
            <Array as="points">
              <mxPoint x="770" y="670" />
              <mxPoint x="1170" y="670" />
            </Array>
          </mxGeometry>
        </mxCell>
        <mxCell id="ufJ5ZLEXhiZKo--kOKLT-226" value="unlock Boolean is &quot;true&quot;" style="rhombus;whiteSpace=wrap;html=1;" parent="WIyWlLk6GJQsqaUBKTNV-1" vertex="1">
          <mxGeometry x="730" y="540" width="80" height="80" as="geometry" />
        </mxCell>
        <mxCell id="ufJ5ZLEXhiZKo--kOKLT-228" value="Yes" style="text;html=1;strokeColor=none;fillColor=none;align=center;verticalAlign=middle;whiteSpace=wrap;rounded=0;" parent="WIyWlLk6GJQsqaUBKTNV-1" vertex="1">
          <mxGeometry x="830" y="550" width="60" height="30" as="geometry" />
        </mxCell>
        <mxCell id="ufJ5ZLEXhiZKo--kOKLT-229" value="No" style="text;html=1;strokeColor=none;fillColor=none;align=center;verticalAlign=middle;whiteSpace=wrap;rounded=0;" parent="WIyWlLk6GJQsqaUBKTNV-1" vertex="1">
          <mxGeometry x="950" y="669" width="60" height="30" as="geometry" />
        </mxCell>
        <mxCell id="ufJ5ZLEXhiZKo--kOKLT-234" style="edgeStyle=orthogonalEdgeStyle;rounded=0;orthogonalLoop=1;jettySize=auto;html=1;entryX=0;entryY=0.5;entryDx=0;entryDy=0;" parent="WIyWlLk6GJQsqaUBKTNV-1" source="ufJ5ZLEXhiZKo--kOKLT-232" target="ufJ5ZLEXhiZKo--kOKLT-207" edge="1">
          <mxGeometry relative="1" as="geometry" />
        </mxCell>
        <mxCell id="ufJ5ZLEXhiZKo--kOKLT-232" value="print &quot;Secret door unlocked!&quot;&amp;nbsp;" style="shape=parallelogram;perimeter=parallelogramPerimeter;whiteSpace=wrap;html=1;fixedSize=1;" parent="WIyWlLk6GJQsqaUBKTNV-1" vertex="1">
          <mxGeometry x="800" y="1070" width="120" height="60" as="geometry" />
        </mxCell>
        <mxCell id="ufJ5ZLEXhiZKo--kOKLT-237" style="edgeStyle=orthogonalEdgeStyle;rounded=0;orthogonalLoop=1;jettySize=auto;html=1;entryX=0.5;entryY=0;entryDx=0;entryDy=0;" parent="WIyWlLk6GJQsqaUBKTNV-1" source="ufJ5ZLEXhiZKo--kOKLT-235" target="ufJ5ZLEXhiZKo--kOKLT-238" edge="1">
          <mxGeometry relative="1" as="geometry">
            <mxPoint x="250" y="-2080" as="targetPoint" />
          </mxGeometry>
        </mxCell>
        <mxCell id="ufJ5ZLEXhiZKo--kOKLT-235" value="Print &quot;&amp;nbsp;Welcome to Simple Minecraft!&quot;" style="shape=parallelogram;perimeter=parallelogramPerimeter;whiteSpace=wrap;html=1;fixedSize=1;" parent="WIyWlLk6GJQsqaUBKTNV-1" vertex="1">
          <mxGeometry x="190" y="-2220" width="120" height="60" as="geometry" />
        </mxCell>
        <mxCell id="ufJ5ZLEXhiZKo--kOKLT-240" style="edgeStyle=orthogonalEdgeStyle;rounded=0;orthogonalLoop=1;jettySize=auto;html=1;entryX=0.5;entryY=0;entryDx=0;entryDy=0;" parent="WIyWlLk6GJQsqaUBKTNV-1" source="ufJ5ZLEXhiZKo--kOKLT-238" target="ufJ5ZLEXhiZKo--kOKLT-239" edge="1">
          <mxGeometry relative="1" as="geometry" />
        </mxCell>
        <mxCell id="ufJ5ZLEXhiZKo--kOKLT-238" value="&lt;div&gt;&amp;nbsp;Print &quot;Insturctions&quot;&lt;/div&gt;" style="shape=parallelogram;perimeter=parallelogramPerimeter;whiteSpace=wrap;html=1;fixedSize=1;" parent="WIyWlLk6GJQsqaUBKTNV-1" vertex="1">
          <mxGeometry x="190" y="-2100" width="120" height="60" as="geometry" />
        </mxCell>
        <mxCell id="ufJ5ZLEXhiZKo--kOKLT-241" style="edgeStyle=orthogonalEdgeStyle;rounded=0;orthogonalLoop=1;jettySize=auto;html=1;entryX=0.5;entryY=0;entryDx=0;entryDy=0;" parent="WIyWlLk6GJQsqaUBKTNV-1" source="ufJ5ZLEXhiZKo--kOKLT-239" target="ufJ5ZLEXhiZKo--kOKLT-3" edge="1">
          <mxGeometry relative="1" as="geometry" />
        </mxCell>
        <mxCell id="ufJ5ZLEXhiZKo--kOKLT-239" value="Print &quot;Start the game? (Y/N):&amp;nbsp;&quot;" style="shape=parallelogram;perimeter=parallelogramPerimeter;whiteSpace=wrap;html=1;fixedSize=1;" parent="WIyWlLk6GJQsqaUBKTNV-1" vertex="1">
          <mxGeometry x="190" y="-1960" width="120" height="60" as="geometry" />
        </mxCell>
        <mxCell id="ufJ5ZLEXhiZKo--kOKLT-242" value="Yes" style="text;html=1;strokeColor=none;fillColor=none;align=center;verticalAlign=middle;whiteSpace=wrap;rounded=0;" parent="WIyWlLk6GJQsqaUBKTNV-1" vertex="1">
          <mxGeometry x="240" y="-1670" width="60" height="30" as="geometry" />
        </mxCell>
        <mxCell id="ufJ5ZLEXhiZKo--kOKLT-243" value="No" style="text;html=1;strokeColor=none;fillColor=none;align=center;verticalAlign=middle;whiteSpace=wrap;rounded=0;" parent="WIyWlLk6GJQsqaUBKTNV-1" vertex="1">
          <mxGeometry x="330" y="-1770" width="60" height="30" as="geometry" />
        </mxCell>
        <mxCell id="ufJ5ZLEXhiZKo--kOKLT-245" style="edgeStyle=orthogonalEdgeStyle;rounded=0;orthogonalLoop=1;jettySize=auto;html=1;entryX=1;entryY=0.5;entryDx=0;entryDy=0;exitX=1;exitY=0.5;exitDx=0;exitDy=0;" parent="WIyWlLk6GJQsqaUBKTNV-1" source="ufJ5ZLEXhiZKo--kOKLT-244" target="ufJ5ZLEXhiZKo--kOKLT-0" edge="1">
          <mxGeometry relative="1" as="geometry">
            <Array as="points">
              <mxPoint x="680" y="-1740" />
              <mxPoint x="680" y="-2320" />
            </Array>
          </mxGeometry>
        </mxCell>
        <mxCell id="ufJ5ZLEXhiZKo--kOKLT-244" value="Print &quot;Game not started. Goodbye!&quot;" style="shape=parallelogram;perimeter=parallelogramPerimeter;whiteSpace=wrap;html=1;fixedSize=1;" parent="WIyWlLk6GJQsqaUBKTNV-1" vertex="1">
          <mxGeometry x="440" y="-1770" width="120" height="60" as="geometry" />
        </mxCell>
        <mxCell id="ck2sGLqdk7FQOX9ZN5vF-13" value="input Save&lt;br&gt;&amp;nbsp;command" style="rhombus;whiteSpace=wrap;html=1;" parent="WIyWlLk6GJQsqaUBKTNV-1" vertex="1">
          <mxGeometry x="190" y="-666" width="120" height="120" as="geometry" />
        </mxCell>
        <mxCell id="ck2sGLqdk7FQOX9ZN5vF-14" style="edgeStyle=orthogonalEdgeStyle;rounded=0;orthogonalLoop=1;jettySize=auto;html=1;exitX=1;exitY=0.5;exitDx=0;exitDy=0;entryX=0;entryY=0.5;entryDx=0;entryDy=0;" parent="WIyWlLk6GJQsqaUBKTNV-1" target="ck2sGLqdk7FQOX9ZN5vF-42" edge="1">
          <mxGeometry relative="1" as="geometry">
            <mxPoint x="410" y="-606" as="targetPoint" />
            <mxPoint x="310" y="-606" as="sourcePoint" />
          </mxGeometry>
        </mxCell>
        <mxCell id="ck2sGLqdk7FQOX9ZN5vF-15" value="Yes" style="text;html=1;strokeColor=none;fillColor=none;align=center;verticalAlign=middle;whiteSpace=wrap;rounded=0;" parent="WIyWlLk6GJQsqaUBKTNV-1" vertex="1">
          <mxGeometry x="370" y="-636" width="60" height="30" as="geometry" />
        </mxCell>
        <mxCell id="ck2sGLqdk7FQOX9ZN5vF-39" style="edgeStyle=orthogonalEdgeStyle;rounded=0;orthogonalLoop=1;jettySize=auto;html=1;" parent="WIyWlLk6GJQsqaUBKTNV-1" source="ck2sGLqdk7FQOX9ZN5vF-16" edge="1">
          <mxGeometry relative="1" as="geometry">
            <mxPoint x="1450" y="-606" as="targetPoint" />
          </mxGeometry>
        </mxCell>
        <mxCell id="ck2sGLqdk7FQOX9ZN5vF-16" value="save the game process in the specified file name" style="rounded=0;whiteSpace=wrap;html=1;" parent="WIyWlLk6GJQsqaUBKTNV-1" vertex="1">
          <mxGeometry x="1000" y="-636" width="120" height="60" as="geometry" />
        </mxCell>
        <mxCell id="ck2sGLqdk7FQOX9ZN5vF-17" style="edgeStyle=orthogonalEdgeStyle;rounded=0;orthogonalLoop=1;jettySize=auto;html=1;exitX=0.5;exitY=1;exitDx=0;exitDy=0;entryX=0.5;entryY=0;entryDx=0;entryDy=0;" parent="WIyWlLk6GJQsqaUBKTNV-1" edge="1">
          <mxGeometry relative="1" as="geometry">
            <mxPoint x="249" y="-546" as="sourcePoint" />
            <mxPoint x="250" y="-482" as="targetPoint" />
          </mxGeometry>
        </mxCell>
        <mxCell id="ck2sGLqdk7FQOX9ZN5vF-18" value="no" style="text;html=1;strokeColor=none;fillColor=none;align=center;verticalAlign=middle;whiteSpace=wrap;rounded=0;" parent="WIyWlLk6GJQsqaUBKTNV-1" vertex="1">
          <mxGeometry x="230" y="-532" width="60" height="30" as="geometry" />
        </mxCell>
        <mxCell id="ck2sGLqdk7FQOX9ZN5vF-24" style="edgeStyle=orthogonalEdgeStyle;rounded=0;orthogonalLoop=1;jettySize=auto;html=1;exitX=1;exitY=0.5;exitDx=0;exitDy=0;" parent="WIyWlLk6GJQsqaUBKTNV-1" source="ck2sGLqdk7FQOX9ZN5vF-19" edge="1">
          <mxGeometry relative="1" as="geometry">
            <mxPoint x="420" y="-425.47058823529414" as="targetPoint" />
          </mxGeometry>
        </mxCell>
        <mxCell id="ck2sGLqdk7FQOX9ZN5vF-37" style="edgeStyle=orthogonalEdgeStyle;rounded=0;orthogonalLoop=1;jettySize=auto;html=1;entryX=0.5;entryY=0;entryDx=0;entryDy=0;" parent="WIyWlLk6GJQsqaUBKTNV-1" source="ck2sGLqdk7FQOX9ZN5vF-19" target="ufJ5ZLEXhiZKo--kOKLT-12" edge="1">
          <mxGeometry relative="1" as="geometry" />
        </mxCell>
        <mxCell id="ck2sGLqdk7FQOX9ZN5vF-19" value="input load &lt;br&gt;command" style="rhombus;whiteSpace=wrap;html=1;" parent="WIyWlLk6GJQsqaUBKTNV-1" vertex="1">
          <mxGeometry x="190" y="-486" width="120" height="120" as="geometry" />
        </mxCell>
        <mxCell id="ck2sGLqdk7FQOX9ZN5vF-22" value="Yes" style="text;html=1;strokeColor=none;fillColor=none;align=center;verticalAlign=middle;whiteSpace=wrap;rounded=0;" parent="WIyWlLk6GJQsqaUBKTNV-1" vertex="1">
          <mxGeometry x="330" y="-460" width="60" height="30" as="geometry" />
        </mxCell>
        <mxCell id="ck2sGLqdk7FQOX9ZN5vF-33" style="edgeStyle=orthogonalEdgeStyle;rounded=0;orthogonalLoop=1;jettySize=auto;html=1;exitX=0.5;exitY=1;exitDx=0;exitDy=0;" parent="WIyWlLk6GJQsqaUBKTNV-1" source="ck2sGLqdk7FQOX9ZN5vF-25" edge="1">
          <mxGeometry relative="1" as="geometry">
            <mxPoint x="940" y="-280" as="targetPoint" />
            <Array as="points">
              <mxPoint x="780" y="-280" />
            </Array>
          </mxGeometry>
        </mxCell>
        <mxCell id="ck2sGLqdk7FQOX9ZN5vF-25" value="there is a valid file to load" style="rhombus;whiteSpace=wrap;html=1;" parent="WIyWlLk6GJQsqaUBKTNV-1" vertex="1">
          <mxGeometry x="720" y="-486" width="120" height="120" as="geometry" />
        </mxCell>
        <mxCell id="ck2sGLqdk7FQOX9ZN5vF-27" style="edgeStyle=orthogonalEdgeStyle;rounded=0;orthogonalLoop=1;jettySize=auto;html=1;exitX=1;exitY=0.5;exitDx=0;exitDy=0;" parent="WIyWlLk6GJQsqaUBKTNV-1" edge="1">
          <mxGeometry relative="1" as="geometry">
            <mxPoint x="950" y="-425.47058823529414" as="targetPoint" />
            <mxPoint x="840" y="-426" as="sourcePoint" />
          </mxGeometry>
        </mxCell>
        <mxCell id="ck2sGLqdk7FQOX9ZN5vF-28" value="Yes" style="text;html=1;strokeColor=none;fillColor=none;align=center;verticalAlign=middle;whiteSpace=wrap;rounded=0;" parent="WIyWlLk6GJQsqaUBKTNV-1" vertex="1">
          <mxGeometry x="860" y="-460" width="60" height="30" as="geometry" />
        </mxCell>
        <mxCell id="ck2sGLqdk7FQOX9ZN5vF-29" value="load game" style="rounded=0;whiteSpace=wrap;html=1;" parent="WIyWlLk6GJQsqaUBKTNV-1" vertex="1">
          <mxGeometry x="950" y="-456" width="120" height="60" as="geometry" />
        </mxCell>
        <mxCell id="ck2sGLqdk7FQOX9ZN5vF-30" style="edgeStyle=orthogonalEdgeStyle;rounded=0;orthogonalLoop=1;jettySize=auto;html=1;exitX=1;exitY=0.5;exitDx=0;exitDy=0;" parent="WIyWlLk6GJQsqaUBKTNV-1" edge="1">
          <mxGeometry relative="1" as="geometry">
            <mxPoint x="1180" y="-421.47058823529414" as="targetPoint" />
            <mxPoint x="1070" y="-422" as="sourcePoint" />
          </mxGeometry>
        </mxCell>
        <mxCell id="ck2sGLqdk7FQOX9ZN5vF-36" style="edgeStyle=orthogonalEdgeStyle;rounded=0;orthogonalLoop=1;jettySize=auto;html=1;exitX=1;exitY=0.5;exitDx=0;exitDy=0;" parent="WIyWlLk6GJQsqaUBKTNV-1" source="ck2sGLqdk7FQOX9ZN5vF-32" edge="1">
          <mxGeometry relative="1" as="geometry">
            <mxPoint x="1450" y="-419.58823529411757" as="targetPoint" />
          </mxGeometry>
        </mxCell>
        <mxCell id="ck2sGLqdk7FQOX9ZN5vF-32" value="update the game map and the inventory" style="rounded=0;whiteSpace=wrap;html=1;" parent="WIyWlLk6GJQsqaUBKTNV-1" vertex="1">
          <mxGeometry x="1180" y="-450" width="120" height="60" as="geometry" />
        </mxCell>
        <mxCell id="ck2sGLqdk7FQOX9ZN5vF-35" style="edgeStyle=orthogonalEdgeStyle;rounded=0;orthogonalLoop=1;jettySize=auto;html=1;" parent="WIyWlLk6GJQsqaUBKTNV-1" source="ck2sGLqdk7FQOX9ZN5vF-34" edge="1">
          <mxGeometry relative="1" as="geometry">
            <mxPoint x="1455.6471162683824" y="-280" as="targetPoint" />
          </mxGeometry>
        </mxCell>
        <mxCell id="ck2sGLqdk7FQOX9ZN5vF-34" value="Print &quot;Error while loading the game state&lt;span style=&quot;background-color: initial;&quot;&gt;&quot;&lt;/span&gt;" style="shape=parallelogram;perimeter=parallelogramPerimeter;whiteSpace=wrap;html=1;fixedSize=1;" parent="WIyWlLk6GJQsqaUBKTNV-1" vertex="1">
          <mxGeometry x="930" y="-310" width="130" height="60" as="geometry" />
        </mxCell>
        <mxCell id="ck2sGLqdk7FQOX9ZN5vF-41" value="" style="endArrow=classic;html=1;rounded=0;" parent="WIyWlLk6GJQsqaUBKTNV-1" edge="1">
          <mxGeometry width="50" height="50" relative="1" as="geometry">
            <mxPoint x="1450" y="-840" as="sourcePoint" />
            <mxPoint x="250" y="-840" as="targetPoint" />
          </mxGeometry>
        </mxCell>
        <mxCell id="ck2sGLqdk7FQOX9ZN5vF-43" style="edgeStyle=orthogonalEdgeStyle;rounded=0;orthogonalLoop=1;jettySize=auto;html=1;entryX=0;entryY=0.5;entryDx=0;entryDy=0;" parent="WIyWlLk6GJQsqaUBKTNV-1" source="ck2sGLqdk7FQOX9ZN5vF-42" target="ck2sGLqdk7FQOX9ZN5vF-16" edge="1">
          <mxGeometry relative="1" as="geometry" />
        </mxCell>
        <mxCell id="ck2sGLqdk7FQOX9ZN5vF-42" value="Print &quot;Enter the file name to save the game state:&lt;span style=&quot;background-color: initial;&quot;&gt;&quot;&lt;/span&gt;" style="shape=parallelogram;perimeter=parallelogramPerimeter;whiteSpace=wrap;html=1;fixedSize=1;" parent="WIyWlLk6GJQsqaUBKTNV-1" vertex="1">
          <mxGeometry x="580" y="-636" width="130" height="60" as="geometry" />
        </mxCell>
        <mxCell id="ck2sGLqdk7FQOX9ZN5vF-45" style="edgeStyle=orthogonalEdgeStyle;rounded=0;orthogonalLoop=1;jettySize=auto;html=1;entryX=0;entryY=0.5;entryDx=0;entryDy=0;" parent="WIyWlLk6GJQsqaUBKTNV-1" source="ck2sGLqdk7FQOX9ZN5vF-44" target="ck2sGLqdk7FQOX9ZN5vF-25" edge="1">
          <mxGeometry relative="1" as="geometry" />
        </mxCell>
        <mxCell id="ck2sGLqdk7FQOX9ZN5vF-44" value="Print &quot;Enter the file name to load the game state: &lt;span style=&quot;background-color: initial;&quot;&gt;&quot;&lt;/span&gt;" style="shape=parallelogram;perimeter=parallelogramPerimeter;whiteSpace=wrap;html=1;fixedSize=1;" parent="WIyWlLk6GJQsqaUBKTNV-1" vertex="1">
          <mxGeometry x="420" y="-456" width="130" height="60" as="geometry" />
        </mxCell>
        <mxCell id="ck2sGLqdk7FQOX9ZN5vF-82" style="edgeStyle=orthogonalEdgeStyle;rounded=0;orthogonalLoop=1;jettySize=auto;html=1;exitX=0.5;exitY=1;exitDx=0;exitDy=0;entryX=0.5;entryY=0;entryDx=0;entryDy=0;" parent="WIyWlLk6GJQsqaUBKTNV-1" source="ck2sGLqdk7FQOX9ZN5vF-51" target="ck2sGLqdk7FQOX9ZN5vF-81" edge="1">
          <mxGeometry relative="1" as="geometry" />
        </mxCell>
        <mxCell id="ck2sGLqdk7FQOX9ZN5vF-51" value="place the player in the middle of the map" style="rounded=0;whiteSpace=wrap;html=1;" parent="WIyWlLk6GJQsqaUBKTNV-1" vertex="1">
          <mxGeometry x="190" y="-1210" width="120" height="60" as="geometry" />
        </mxCell>
        <mxCell id="ck2sGLqdk7FQOX9ZN5vF-58" style="edgeStyle=orthogonalEdgeStyle;rounded=0;orthogonalLoop=1;jettySize=auto;html=1;entryX=0.5;entryY=0;entryDx=0;entryDy=0;" parent="WIyWlLk6GJQsqaUBKTNV-1" source="ck2sGLqdk7FQOX9ZN5vF-55" target="ck2sGLqdk7FQOX9ZN5vF-56" edge="1">
          <mxGeometry relative="1" as="geometry" />
        </mxCell>
        <mxCell id="ck2sGLqdk7FQOX9ZN5vF-61" style="edgeStyle=orthogonalEdgeStyle;rounded=0;orthogonalLoop=1;jettySize=auto;html=1;exitX=1;exitY=0.5;exitDx=0;exitDy=0;entryX=0;entryY=0.5;entryDx=0;entryDy=0;" parent="WIyWlLk6GJQsqaUBKTNV-1" source="ck2sGLqdk7FQOX9ZN5vF-55" target="ck2sGLqdk7FQOX9ZN5vF-59" edge="1">
          <mxGeometry relative="1" as="geometry" />
        </mxCell>
        <mxCell id="ck2sGLqdk7FQOX9ZN5vF-55" value="input &quot;exit&quot;&lt;br style=&quot;border-color: var(--border-color);&quot;&gt;command" style="rhombus;whiteSpace=wrap;html=1;" parent="WIyWlLk6GJQsqaUBKTNV-1" vertex="1">
          <mxGeometry x="190" y="1820" width="120" height="120" as="geometry" />
        </mxCell>
        <mxCell id="ck2sGLqdk7FQOX9ZN5vF-64" style="edgeStyle=orthogonalEdgeStyle;rounded=0;orthogonalLoop=1;jettySize=auto;html=1;exitX=0.5;exitY=1;exitDx=0;exitDy=0;entryX=0.5;entryY=0;entryDx=0;entryDy=0;" parent="WIyWlLk6GJQsqaUBKTNV-1" source="ck2sGLqdk7FQOX9ZN5vF-56" target="ck2sGLqdk7FQOX9ZN5vF-63" edge="1">
          <mxGeometry relative="1" as="geometry" />
        </mxCell>
        <mxCell id="ck2sGLqdk7FQOX9ZN5vF-56" value="print &quot;Exiting the game. Goodbye!&lt;span style=&quot;background-color: initial;&quot;&gt;:&quot;&lt;/span&gt;" style="shape=parallelogram;perimeter=parallelogramPerimeter;whiteSpace=wrap;html=1;fixedSize=1;" parent="WIyWlLk6GJQsqaUBKTNV-1" vertex="1">
          <mxGeometry x="185" y="2060" width="130" height="60" as="geometry" />
        </mxCell>
        <mxCell id="ck2sGLqdk7FQOX9ZN5vF-65" style="edgeStyle=orthogonalEdgeStyle;rounded=0;orthogonalLoop=1;jettySize=auto;html=1;exitX=1;exitY=0.5;exitDx=0;exitDy=0;" parent="WIyWlLk6GJQsqaUBKTNV-1" source="ck2sGLqdk7FQOX9ZN5vF-59" edge="1">
          <mxGeometry relative="1" as="geometry">
            <mxPoint x="1450" y="1750" as="targetPoint" />
          </mxGeometry>
        </mxCell>
        <mxCell id="ck2sGLqdk7FQOX9ZN5vF-59" value="input any other undefined string" style="rhombus;whiteSpace=wrap;html=1;" parent="WIyWlLk6GJQsqaUBKTNV-1" vertex="1">
          <mxGeometry x="440" y="1820" width="120" height="120" as="geometry" />
        </mxCell>
        <mxCell id="ck2sGLqdk7FQOX9ZN5vF-60" value="No" style="text;html=1;strokeColor=none;fillColor=none;align=center;verticalAlign=middle;whiteSpace=wrap;rounded=0;" parent="WIyWlLk6GJQsqaUBKTNV-1" vertex="1">
          <mxGeometry x="350" y="1840" width="60" height="30" as="geometry" />
        </mxCell>
        <mxCell id="ck2sGLqdk7FQOX9ZN5vF-62" value="Yes" style="text;html=1;strokeColor=none;fillColor=none;align=center;verticalAlign=middle;whiteSpace=wrap;rounded=0;" parent="WIyWlLk6GJQsqaUBKTNV-1" vertex="1">
          <mxGeometry x="200" y="1980" width="60" height="30" as="geometry" />
        </mxCell>
        <mxCell id="ck2sGLqdk7FQOX9ZN5vF-63" value="END" style="ellipse;whiteSpace=wrap;html=1;" parent="WIyWlLk6GJQsqaUBKTNV-1" vertex="1">
          <mxGeometry x="540" y="2230" width="120" height="80" as="geometry" />
        </mxCell>
        <mxCell id="ck2sGLqdk7FQOX9ZN5vF-66" value="No" style="text;html=1;strokeColor=none;fillColor=none;align=center;verticalAlign=middle;whiteSpace=wrap;rounded=0;" parent="WIyWlLk6GJQsqaUBKTNV-1" vertex="1">
          <mxGeometry x="570" y="1890" width="60" height="30" as="geometry" />
        </mxCell>
        <mxCell id="ck2sGLqdk7FQOX9ZN5vF-68" style="edgeStyle=orthogonalEdgeStyle;rounded=0;orthogonalLoop=1;jettySize=auto;html=1;exitX=0.5;exitY=0;exitDx=0;exitDy=0;entryX=0;entryY=0.5;entryDx=0;entryDy=0;" parent="WIyWlLk6GJQsqaUBKTNV-1" source="ck2sGLqdk7FQOX9ZN5vF-67" target="ufJ5ZLEXhiZKo--kOKLT-135" edge="1">
          <mxGeometry relative="1" as="geometry" />
        </mxCell>
        <mxCell id="ck2sGLqdk7FQOX9ZN5vF-67" value="print the Crafting Recipes" style="shape=parallelogram;perimeter=parallelogramPerimeter;whiteSpace=wrap;html=1;fixedSize=1;" parent="WIyWlLk6GJQsqaUBKTNV-1" vertex="1">
          <mxGeometry x="294" y="-60" width="120" height="60" as="geometry" />
        </mxCell>
        <mxCell id="ck2sGLqdk7FQOX9ZN5vF-77" style="edgeStyle=orthogonalEdgeStyle;rounded=0;orthogonalLoop=1;jettySize=auto;html=1;entryX=0.5;entryY=0;entryDx=0;entryDy=0;" parent="WIyWlLk6GJQsqaUBKTNV-1" source="ck2sGLqdk7FQOX9ZN5vF-72" target="ck2sGLqdk7FQOX9ZN5vF-51" edge="1">
          <mxGeometry relative="1" as="geometry" />
        </mxCell>
        <mxCell id="ck2sGLqdk7FQOX9ZN5vF-72" value="Generate world" style="rounded=0;whiteSpace=wrap;html=1;" parent="WIyWlLk6GJQsqaUBKTNV-1" vertex="1">
          <mxGeometry x="190" y="-1360" width="120" height="60" as="geometry" />
        </mxCell>
        <mxCell id="ck2sGLqdk7FQOX9ZN5vF-75" style="edgeStyle=orthogonalEdgeStyle;rounded=0;orthogonalLoop=1;jettySize=auto;html=1;entryX=0.5;entryY=0;entryDx=0;entryDy=0;" parent="WIyWlLk6GJQsqaUBKTNV-1" source="ck2sGLqdk7FQOX9ZN5vF-73" target="ck2sGLqdk7FQOX9ZN5vF-72" edge="1">
          <mxGeometry relative="1" as="geometry" />
        </mxCell>
        <mxCell id="ck2sGLqdk7FQOX9ZN5vF-73" value="print :&lt;br&gt;&lt;div&gt;Legend:&lt;/div&gt;&lt;div&gt;-- - Empty block&lt;/div&gt;&lt;div&gt;▒▒ - Wood block&lt;/div&gt;&lt;div&gt;?? - Leaves block&lt;/div&gt;&lt;div&gt;▓▓ - Stone block&lt;/div&gt;&lt;div&gt;°°- Iron ore block&lt;/div&gt;&lt;div&gt;P - Player&lt;/div&gt;&lt;div&gt;World Map:&lt;/div&gt;" style="shape=parallelogram;perimeter=parallelogramPerimeter;whiteSpace=wrap;html=1;fixedSize=1;" parent="WIyWlLk6GJQsqaUBKTNV-1" vertex="1">
          <mxGeometry x="145" y="-1570" width="210" height="140" as="geometry" />
        </mxCell>
        <mxCell id="ck2sGLqdk7FQOX9ZN5vF-83" style="edgeStyle=orthogonalEdgeStyle;rounded=0;orthogonalLoop=1;jettySize=auto;html=1;exitX=0.5;exitY=1;exitDx=0;exitDy=0;entryX=0.5;entryY=0;entryDx=0;entryDy=0;" parent="WIyWlLk6GJQsqaUBKTNV-1" source="ck2sGLqdk7FQOX9ZN5vF-81" target="ck2sGLqdk7FQOX9ZN5vF-13" edge="1">
          <mxGeometry relative="1" as="geometry" />
        </mxCell>
        <mxCell id="ck2sGLqdk7FQOX9ZN5vF-81" value="Display empty inventory and none crafted items" style="shape=parallelogram;perimeter=parallelogramPerimeter;whiteSpace=wrap;html=1;fixedSize=1;" parent="WIyWlLk6GJQsqaUBKTNV-1" vertex="1">
          <mxGeometry x="190" y="-1040" width="120" height="60" as="geometry" />
        </mxCell>
        <mxCell id="jaaq1zfjWtZs_Eytgcbc-1" style="edgeStyle=orthogonalEdgeStyle;rounded=0;orthogonalLoop=1;jettySize=auto;html=1;entryX=0;entryY=0.5;entryDx=0;entryDy=0;" parent="WIyWlLk6GJQsqaUBKTNV-1" source="jaaq1zfjWtZs_Eytgcbc-0" target="ufJ5ZLEXhiZKo--kOKLT-203" edge="1">
          <mxGeometry relative="1" as="geometry" />
        </mxCell>
        <mxCell id="jaaq1zfjWtZs_Eytgcbc-0" value="Set Craft, Mine, Move and Unlock Booleans to false" style="rounded=0;whiteSpace=wrap;html=1;" parent="WIyWlLk6GJQsqaUBKTNV-1" vertex="1">
          <mxGeometry x="720" y="1185" width="120" height="60" as="geometry" />
        </mxCell>
      </root>
    </mxGraphModel>
  </diagram>
</mxfile>
